# xmcd
#
# Track frame offsets:
# 150
# 14543
# 27244
# 44060
# 52180
# 84246
# 97499
# 122674
# 129731
# 157814
# 168503
#
# Disc length: 2751 seconds
#
# Revision: 0
# Processed by: cddbd v1.4PL0 Copyright (c) Steve Scherf et al.
# Submitted via: Audion 3.0.2 (http://www.panic.com/audion/)
#
DISCID=960abd0b
DTITLE=[[[[VVRSSNN]]]] - [[[[VVRSSNN]]]]
DYEAR=1900
DGENRE=
TTITLE0=DOUBLEDRAGONS (versionDLOversion)
TTITLE1=Comeouttoshowdem
TTITLE2=bruise blood
TTITLE3=I want to warm you (i need to warn you)
TTITLE4=COEM OUT (K-HOLE VERSION)
TTITLE5=((((INVISIBLE WAVEZ))))
TTITLE6=surface iii (HARDCORE VERSION)
TTITLE7=GUILDED GOLDEN LADIES
TTITLE8=blankets made of snow
TTITLE9=((SHIELD OF INVISIBILITY))
TTITLE10=whispersinthewaiting
EXTD=
EXTT0=
EXTT1=
EXTT2=
EXTT3=
EXTT4=
EXTT5=
EXTT6=
EXTT7=
EXTT8=
EXTT9=
EXTT10=
PLAYORDER=
